<svg xmlns="http://www.w3.org/2000/svg" viewBox="0 0 500 400" width="500" height="400">
  <defs>
    <radialGradient id="bg-glow" cx="50%" cy="52%" r="44%">
      <stop offset="0%" stop-color="#16213e" stop-opacity="0.1"/>
      <stop offset="100%" stop-color="#16213e" stop-opacity="0"/>
    </radialGradient>
    <filter id="drop-shadow">
      <feDropShadow dx="0" dy="6" stdDeviation="10" flood-color="#000" flood-opacity="0.14"/>
    </filter>
  </defs>
  <ellipse cx="250" cy="215" rx="175" ry="125" fill="url(#bg-glow)"/>
  <line x1="178" y1="148" x2="322" y2="292" stroke="#1e293b" stroke-width="11" stroke-linecap="round"/>
  <line x1="322" y1="148" x2="178" y2="292" stroke="#1e293b" stroke-width="11" stroke-linecap="round"/>
  <rect x="218" y="188" width="64" height="64" rx="8" fill="#0f172a" filter="url(#drop-shadow)"/>
  <rect x="227" y="197" width="46" height="46" rx="5" fill="#1e293b"/>
  <rect x="242" y="193" width="16" height="6" rx="2" fill="#334155"/>
  <rect x="232" y="224" width="6" height="6" rx="1" fill="#16213e" stroke="#0ea5e9" stroke-width="1"/>
  <rect x="243" y="224" width="6" height="6" rx="1" fill="#0ea5e9" opacity="0.9"/>
  <rect x="254" y="224" width="6" height="6" rx="1" fill="#16213e" stroke="#0ea5e9" stroke-width="1"/>
  <circle cx="178" cy="148" r="50" fill="none" stroke="#1e293b" stroke-width="3.5"/>
  <circle cx="178" cy="148" r="43" fill="none" stroke="#0ea5e9" stroke-width="1" opacity="0.3"/>
  <circle cx="322" cy="148" r="50" fill="none" stroke="#1e293b" stroke-width="3.5"/>
  <circle cx="322" cy="148" r="43" fill="none" stroke="#0ea5e9" stroke-width="1" opacity="0.3"/>
  <circle cx="178" cy="292" r="50" fill="none" stroke="#1e293b" stroke-width="3.5"/>
  <circle cx="178" cy="292" r="43" fill="none" stroke="#0ea5e9" stroke-width="1" opacity="0.3"/>
  <circle cx="322" cy="292" r="50" fill="none" stroke="#1e293b" stroke-width="3.5"/>
  <circle cx="322" cy="292" r="43" fill="none" stroke="#0ea5e9" stroke-width="1" opacity="0.3"/>
  <circle cx="178" cy="148" r="13" fill="#1e293b"/>
  <circle cx="178" cy="148" r="7.5" fill="#0ea5e9"/>
  <circle cx="322" cy="148" r="13" fill="#1e293b"/>
  <circle cx="322" cy="148" r="7.5" fill="#0ea5e9"/>
  <circle cx="178" cy="292" r="13" fill="#1e293b"/>
  <circle cx="178" cy="292" r="7.5" fill="#0ea5e9"/>
  <circle cx="322" cy="292" r="13" fill="#1e293b"/>
  <circle cx="322" cy="292" r="7.5" fill="#0ea5e9"/>
  <ellipse cx="178" cy="148" rx="40" ry="6" fill="#0f172a" opacity="0.2" transform="rotate(-25 178 148)"/>
  <ellipse cx="178" cy="148" rx="40" ry="6" fill="#0f172a" opacity="0.15" transform="rotate(65 178 148)"/>
  <ellipse cx="322" cy="148" rx="40" ry="6" fill="#0f172a" opacity="0.2" transform="rotate(25 322 148)"/>
  <ellipse cx="322" cy="148" rx="40" ry="6" fill="#0f172a" opacity="0.15" transform="rotate(-65 322 148)"/>
  <ellipse cx="178" cy="292" rx="40" ry="6" fill="#0f172a" opacity="0.2" transform="rotate(15 178 292)"/>
  <ellipse cx="178" cy="292" rx="40" ry="6" fill="#0f172a" opacity="0.15" transform="rotate(-75 178 292)"/>
  <ellipse cx="322" cy="292" rx="40" ry="6" fill="#0f172a" opacity="0.2" transform="rotate(-15 322 292)"/>
  <ellipse cx="322" cy="292" rx="40" ry="6" fill="#0f172a" opacity="0.15" transform="rotate(75 322 292)"/>
  <rect x="228" y="177" width="44" height="14" rx="3" fill="#1e293b" stroke="#334155" stroke-width="1"/>
  <text x="250" y="187" text-anchor="middle" font-family="Arial" font-size="7" fill="#64748b" letter-spacing="1">AVATAR</text>
  <text x="250" y="365" text-anchor="middle" font-family="Arial" font-size="11" font-weight="600" letter-spacing="3" fill="#bbb" opacity="0.8">PAVO25 WALKSNAIL · TOP VIEW</text>
</svg>
